<svg width="161" height="161" viewBox="0 0 161 161" fill="none" xmlns="http://www.w3.org/2000/svg">
<path d="M69.264 150.241C69.1866 150.221 69.0898 150.28 68.9737 150.417C68.8575 150.554 68.7551 150.801 68.6665 151.159L66.6728 159.213C66.5842 159.571 66.5605 159.833 66.6019 159.998C66.6406 160.174 66.6972 160.278 66.7718 160.308L60.8851 158.816C59.7022 158.517 58.905 158.083 58.4934 157.515C58.0818 156.947 57.9757 156.26 58.1751 155.455C58.2831 155.018 58.4463 154.667 58.6648 154.402C58.8833 154.136 59.1142 153.939 59.3575 153.811C59.6008 153.682 59.8247 153.608 60.0292 153.589L60.0375 153.555C59.3909 153.272 58.9447 152.844 58.699 152.271C58.4504 151.708 58.4037 151.114 58.5588 150.488C58.7028 149.906 58.9366 149.436 59.2601 149.078C59.5726 148.718 60.0108 148.49 60.5747 148.395C61.1386 148.3 61.8572 148.363 62.7306 148.585L69.264 150.241ZM65.9614 155.395L61.6666 154.307C61.0033 154.139 60.4422 154.151 59.9833 154.344C59.5216 154.548 59.2105 154.974 59.0498 155.623C58.9003 156.227 58.9719 156.744 59.2647 157.175C59.5575 157.606 60.0964 157.921 60.8813 158.12L65.0268 159.171C65.3585 159.255 65.563 159.283 65.6404 159.255C65.704 159.235 65.7676 159.097 65.8313 158.84L66.5167 156.071C66.5776 155.825 66.5859 155.673 66.5417 155.614C66.4865 155.552 66.293 155.479 65.9614 155.395ZM67.2033 150.45L62.3779 149.227C60.7528 148.815 59.7644 149.319 59.4128 150.74C59.2466 151.411 59.3707 152.001 59.7851 152.51C60.1857 153.028 60.8613 153.407 61.812 153.648L66.1234 154.741C66.455 154.825 66.6596 154.853 66.737 154.825C66.8033 154.794 66.8683 154.65 66.932 154.393L67.742 151.121C67.8029 150.875 67.8113 150.723 67.7671 150.664C67.7118 150.602 67.5239 150.531 67.2033 150.45Z" fill="white"/>
<path d="M52.8665 144.744C53.9033 145.223 54.6414 145.766 55.081 146.375C55.5102 146.979 55.7139 147.624 55.6921 148.311C55.66 148.994 55.4807 149.697 55.1542 150.421C54.823 151.155 54.408 151.756 53.9094 152.223C53.4003 152.685 52.7798 152.95 52.0478 153.017C51.311 153.095 50.4295 152.897 49.4031 152.423C48.3767 151.949 47.6512 151.405 47.2268 150.791C46.7872 150.182 46.5783 149.534 46.6001 148.847C46.6219 148.16 46.7983 147.449 47.1295 146.715C47.456 145.991 47.879 145.401 48.3984 144.943C48.9074 144.481 49.528 144.216 50.26 144.149C50.992 144.081 51.8608 144.279 52.8665 144.744ZM52.5826 145.373C51.5147 144.88 50.6076 144.753 49.8612 144.991C49.0997 145.235 48.4587 145.934 47.9382 147.088C47.4178 148.242 47.3159 149.19 47.6327 149.933C47.9447 150.685 48.6294 151.306 49.6869 151.794C50.7445 152.282 51.6587 152.394 52.4297 152.129C53.2006 151.864 53.8416 151.165 54.3526 150.032C54.8636 148.898 54.9659 147.963 54.6595 147.226C54.3428 146.484 53.6505 145.866 52.5826 145.373Z" fill="white"/>
<path d="M42.8106 139.038C43.7529 139.686 44.39 140.348 44.722 141.023C45.0445 141.691 45.1379 142.362 45.0021 143.036C44.8568 143.703 44.5631 144.366 44.1208 145.023C43.6721 145.691 43.1631 146.212 42.5938 146.587C42.0151 146.956 41.3594 147.112 40.6266 147.053C39.8873 147.005 39.0513 146.659 38.1185 146.017C37.1856 145.375 36.5611 144.715 36.245 144.037C35.913 143.362 35.8149 142.688 35.9507 142.015C36.0866 141.341 36.3788 140.671 36.8275 140.003C37.2698 139.345 37.785 138.835 38.3732 138.473C38.9519 138.104 39.6076 137.949 40.3404 138.007C41.0732 138.065 41.8966 138.409 42.8106 139.038ZM42.426 139.61C41.4555 138.942 40.5825 138.662 39.8071 138.77C39.0158 138.88 38.2676 139.46 37.5625 140.509C36.8574 141.558 36.5992 142.475 36.7879 143.26C36.9702 144.055 37.5419 144.784 38.5031 145.445C39.4642 146.107 40.3468 146.373 41.1509 146.243C41.9549 146.113 42.7031 145.533 43.3954 144.503C44.0877 143.473 44.3442 142.569 44.1649 141.79C43.9762 141.005 43.3966 140.278 42.426 139.61Z" fill="white"/>
<path d="M36.8238 134.795C36.7659 134.739 36.6572 134.746 36.4978 134.816C36.3301 134.878 36.1208 135.042 35.8699 135.31L29.1649 142.464C28.9139 142.732 28.7664 142.948 28.7224 143.112C28.6622 143.277 28.6571 143.391 28.7072 143.455L27.8141 142.598L32.5194 137.578C32.6919 137.394 32.7771 137.261 32.775 137.179C32.7567 137.098 32.6235 136.939 32.3755 136.701C31.7801 136.129 31.094 135.789 30.3173 135.679C29.5323 135.562 28.7741 135.7 28.0428 136.095C27.7009 136.275 27.4872 136.428 27.4018 136.553C27.3003 136.678 27.2663 136.764 27.2998 136.812L26.047 135.61C26.0718 135.634 26.1846 135.631 26.3854 135.601C26.5778 135.563 26.8738 135.474 27.2731 135.333C28.088 135.05 28.842 134.907 29.5352 134.905C30.2201 134.895 30.8614 135.065 31.4591 135.416C31.0897 134.855 30.8459 134.319 30.7278 133.808C30.5935 133.298 30.5435 132.773 30.5777 132.234C30.6037 131.687 30.685 131.097 30.8216 130.465C30.9072 130.039 30.9428 129.708 30.9286 129.472C30.906 129.227 30.8658 129.078 30.808 129.022L32.1724 130.331C32.1149 130.292 32.0317 130.347 31.9228 130.497C31.8056 130.639 31.6805 130.94 31.5474 131.4C31.4135 131.828 31.3455 132.311 31.3435 132.85C31.3337 133.396 31.4451 133.956 31.6777 134.529C31.8943 135.103 32.2837 135.659 32.846 136.199C33.1023 136.445 33.2865 136.55 33.3984 136.514C33.5103 136.479 33.6565 136.365 33.8368 136.172L35.2249 134.691C35.4758 134.423 35.6314 134.207 35.6916 134.042C35.7435 133.87 35.7405 133.755 35.6826 133.7L36.8238 134.795Z" fill="white"/>
<path d="M23.7029 119.225C24.3175 120.196 24.6464 121.058 24.6896 121.81C24.7267 122.553 24.552 123.207 24.1655 123.773C23.7728 124.328 23.2454 124.821 22.5832 125.25C21.9114 125.685 21.2409 125.962 20.5717 126.081C19.8964 126.19 19.2331 126.072 18.5818 125.727C17.9209 125.389 17.2863 124.739 16.6778 123.777C16.0694 122.816 15.7514 121.961 15.7239 121.211C15.6807 120.459 15.8524 119.8 16.2389 119.235C16.6254 118.669 17.1545 118.169 17.8263 117.733C18.4885 117.304 19.1603 117.04 19.8418 116.941C20.5172 116.832 21.1805 116.95 21.8318 117.295C22.483 117.639 23.1068 118.283 23.7029 119.225ZM23.1271 119.598C22.4941 118.598 21.8001 117.993 21.0452 117.784C20.2745 117.571 19.3614 117.807 18.3057 118.491C17.25 119.175 16.6564 119.916 16.5249 120.713C16.3839 121.516 16.6268 122.413 17.2536 123.404C17.8805 124.395 18.5889 124.99 19.3787 125.19C20.1686 125.39 21.0817 125.155 22.1182 124.483C23.1547 123.812 23.7418 123.082 23.8794 122.294C24.0109 121.497 23.7601 120.598 23.1271 119.598Z" fill="white"/>
<path d="M19.7371 112.552C19.7041 112.479 19.6008 112.444 19.4272 112.448C19.249 112.442 18.9939 112.515 18.662 112.668L12.9368 115.305L13.5743 116.722L12.952 117.009L12.2507 115.451L12.2125 115.449C12.1758 115.479 12.0306 115.615 11.777 115.859C11.5188 116.092 11.1874 116.302 10.7829 116.488C9.9635 116.865 9.26605 116.902 8.69052 116.597C8.11499 116.292 7.63832 115.719 7.26051 114.88C7.01965 114.345 6.8458 113.861 6.73894 113.428C6.62171 113.001 6.56162 112.687 6.55866 112.485L6.72979 112.406L7.19486 111.812C7.19597 112.065 7.25329 112.457 7.36681 112.987C7.47561 113.507 7.66933 114.077 7.94796 114.696C8.23132 115.326 8.58997 115.705 9.02391 115.835C9.44276 115.959 9.96333 115.877 10.5856 115.59L11.5502 115.146C11.7784 115.041 11.9038 114.958 11.9264 114.897C11.949 114.836 11.906 114.684 11.7973 114.443L10.3097 111.137C10.3531 111.206 10.4381 111.255 10.5645 111.286C10.6862 111.306 10.8559 111.266 11.0737 111.165L12.5684 114.487L18.2936 111.849C18.6255 111.696 18.8499 111.555 18.9668 111.425C19.0789 111.284 19.1185 111.178 19.0854 111.104L19.7371 112.552Z" fill="white"/>
<path d="M14.8973 99.9318C14.8819 99.8526 14.7882 99.789 14.6162 99.7411C14.4443 99.6931 14.1794 99.7048 13.8216 99.7761L5.77107 101.382C5.41327 101.453 5.16941 101.543 5.03948 101.651C4.89836 101.761 4.82993 101.857 4.83417 101.939L3.04262 92.7402L3.21034 92.7068L3.91574 92.2135C3.91493 92.5075 3.95598 93.0165 4.0389 93.7404C4.11064 94.4666 4.24457 95.3332 4.4407 96.3401L5.12823 99.8702C5.19434 100.21 5.26196 100.408 5.33109 100.464C5.38683 100.512 5.5321 100.512 5.76691 100.466L8.51751 99.9171C8.76349 99.8681 8.90334 99.8108 8.93705 99.7453C8.96855 99.6685 8.95235 99.466 8.88845 99.1379L8.21414 95.6757C8.08632 95.0195 7.96708 94.4968 7.85641 94.1075C7.73236 93.7091 7.64144 93.451 7.58365 93.3332C7.63262 93.4057 7.7375 93.4671 7.89828 93.5173C8.04568 93.5584 8.24237 93.5545 8.48836 93.5054L9.55932 99.0041C9.62323 99.3322 9.68416 99.5258 9.7421 99.5847C9.78666 99.6346 9.93753 99.6339 10.1947 99.5826L13.4652 98.9304C13.7224 98.8791 13.8678 98.8207 13.9015 98.7552C13.9352 98.6897 13.919 98.4873 13.8529 98.1479L12.7621 92.5473C12.6343 91.8911 12.4983 91.3717 12.3541 90.989C12.1965 90.5973 12.0664 90.3471 11.9639 90.2382L12.8519 90.4137L13.0364 90.377L14.8973 99.9318Z" fill="white"/>
<path d="M12.9076 87.3424C12.9023 87.2619 12.8179 87.1924 12.6542 87.1339C12.4897 87.064 12.2256 87.0411 11.8617 87.0654L2.13883 87.7131C1.77493 87.7374 1.52169 87.7947 1.3791 87.8851C1.22438 87.9647 1.14396 88.0452 1.13783 88.1265C1.11537 87.7813 1.06329 87.5074 0.981579 87.3048C0.887753 87.0915 0.799166 86.9587 0.71582 86.9065L11.8033 86.1678C12.1672 86.1436 12.4265 86.0917 12.5812 86.012C12.7351 85.9209 12.8095 85.835 12.8043 85.7545L12.9076 87.3424Z" fill="white"/>
<path d="M12.9187 79.1962C12.8523 80.4513 12.599 81.3557 12.1588 81.9093C11.7079 82.4507 11.0671 82.6989 10.2363 82.6539C9.41697 82.6095 8.80274 82.2471 8.39365 81.5667C7.98455 80.8863 7.81717 79.8436 7.89151 78.4388C7.93355 77.6442 8.03595 77.0031 8.19871 76.5153C8.35009 76.0269 8.51245 75.6546 8.68578 75.3984C8.85911 75.1422 8.99374 74.9705 9.08965 74.8833C8.23615 74.837 7.54278 74.8918 7.00955 75.0477C6.46494 75.203 6.06004 75.5217 5.79486 76.004C5.5183 76.4856 5.35534 77.1927 5.30599 78.1255C5.27796 78.6552 5.30206 79.1704 5.37828 79.6711C5.44373 80.1597 5.54068 80.5922 5.66912 80.9687C5.79818 81.3337 5.92733 81.589 6.05658 81.7346L5.88588 81.7253L5.10858 81.8565C5.07749 81.797 5.01865 81.6148 4.93207 81.3099C4.83412 81.0043 4.74855 80.5724 4.67537 80.0141C4.60281 79.4443 4.58785 78.7564 4.6305 77.9503C4.70971 76.4533 5.07333 75.4048 5.72136 74.8047C6.35862 74.1925 7.30885 73.9207 8.57204 73.9891L11.9861 74.1741C12.3047 74.1913 12.5398 74.1694 12.6914 74.1083C12.8322 74.0351 12.9446 73.9604 13.0285 73.8841L12.9646 75.0932L12.094 75.046L11.7715 74.9939L11.7526 75.0275C11.8286 75.1009 11.942 75.2226 12.0928 75.3924C12.2322 75.5616 12.3733 75.806 12.5162 76.1256C12.6597 76.4336 12.7695 76.838 12.8458 77.3387C12.934 77.8285 12.9583 78.4477 12.9187 79.1962ZM12.2307 78.9337C12.2684 78.2197 12.2172 77.5703 12.077 76.9852C11.9374 76.3887 11.7287 75.9097 11.4511 75.5482C11.1628 75.1746 10.8308 74.9776 10.4553 74.9572C9.9773 74.9314 9.56437 75.1861 9.21649 75.7216C8.85722 76.2565 8.64499 77.14 8.57979 78.3721C8.46342 80.5716 9.03114 81.7052 10.2829 81.773C10.9088 81.8069 11.3762 81.6013 11.6851 81.1561C11.994 80.7109 12.1758 79.9701 12.2307 78.9337Z" fill="white"/>
<path d="M13.4959 70.9493C13.512 70.8702 13.4489 70.7805 13.3065 70.6801C13.1663 70.5684 12.9177 70.4753 12.5605 70.4007L6.90177 69.2192C6.54461 69.1446 6.28542 69.1317 6.1242 69.1805C5.95412 69.2156 5.85545 69.2715 5.82816 69.3483C5.89956 68.9981 5.9225 68.7144 5.89699 68.4972C5.86031 68.2776 5.80867 68.1314 5.74206 68.0586L6.93073 68.3068L7.20843 68.4001L7.24882 68.3732C7.06209 68.2047 6.87226 67.9943 6.67933 67.7421C6.4864 67.4899 6.34866 67.1667 6.2661 66.7727C6.17238 66.3763 6.18194 65.9014 6.29479 65.348C6.41916 64.7382 6.60553 64.2237 6.85391 63.8045C7.09343 63.3718 7.30974 63.0814 7.50285 62.9333L8.37236 63.2915L8.53978 63.3264C8.27546 63.4243 7.97676 63.6622 7.6437 64.0401C7.31063 64.418 7.07501 64.9458 6.93683 65.6234C6.7687 66.4479 6.91203 67.1431 7.36681 67.709C7.82389 68.2637 8.49888 68.6342 9.39178 68.8206L12.7401 69.5198C13.0973 69.5944 13.3609 69.6141 13.531 69.5789C13.7034 69.5325 13.7976 69.4698 13.8137 69.3907L13.4959 70.9493Z" fill="white"/>
<path d="M16.7547 58.9346C16.3247 60.1139 15.8186 60.9021 15.2364 61.2993C14.6475 61.6818 13.9628 61.7273 13.1823 61.4358C12.4125 61.1484 11.9316 60.6185 11.7394 59.8462C11.5473 59.0738 11.6919 58.0277 12.1732 56.7078C12.4455 55.9613 12.7305 55.3794 13.0285 54.962C13.3157 54.5407 13.5796 54.2336 13.82 54.0407C14.0604 53.8477 14.2392 53.724 14.3563 53.6693C13.5544 53.3699 12.876 53.215 12.321 53.2044C11.7554 53.1899 11.2755 53.3733 10.8813 53.7547C10.4765 54.1321 10.1143 54.759 9.7947 55.6353C9.61323 56.133 9.48578 56.6324 9.41237 57.1335C9.33221 57.6198 9.2985 58.062 9.31125 58.4601C9.32795 58.8474 9.37677 59.1299 9.45773 59.3077L9.29736 59.2478L8.51649 59.1406C8.50414 59.0745 8.50114 58.8829 8.50748 58.5657C8.50314 58.2445 8.54754 57.8062 8.64068 57.251C8.73776 56.685 8.92438 56.0233 9.20054 55.2659C9.71341 53.8595 10.367 52.9665 11.1613 52.5871C11.9489 52.1928 12.9361 52.2172 14.1229 52.6603L17.3304 53.8579C17.6298 53.9697 17.8608 54.0191 18.0235 54.0061C18.1794 53.9782 18.3086 53.9404 18.411 53.8926L17.9968 55.0286L17.1789 54.7232L16.886 54.577L16.8581 54.6035C16.9093 54.6963 16.9821 54.8464 17.0766 55.0538C17.1603 55.2571 17.2238 55.5328 17.2669 55.8808C17.3141 56.218 17.3009 56.6372 17.2275 57.1383C17.1687 57.6326 17.0111 58.2314 16.7547 58.9346ZM16.1741 58.4781C16.4187 57.8074 16.5594 57.1716 16.5963 56.5707C16.6371 55.9591 16.5777 55.4391 16.4181 55.0107C16.2517 54.5676 15.9921 54.2801 15.6393 54.1484C15.1902 53.9807 14.7213 54.1006 14.2326 54.5082C13.7332 54.9117 13.2724 55.6923 12.8503 56.8499C12.0967 58.9163 12.308 60.1691 13.4841 60.6082C14.0722 60.8278 14.5787 60.7711 15.0038 60.4381C15.4289 60.1052 15.819 59.4518 16.1741 58.4781Z" fill="white"/>
<path d="M25.5032 41.2893C25.5544 41.2274 25.5445 41.1137 25.4735 40.9481C25.4025 40.7826 25.2273 40.5812 24.9478 40.3441L18.66 35.0097C18.3805 34.7726 18.1584 34.6369 17.9936 34.6024C17.8201 34.5606 17.7033 34.5668 17.6433 34.6213L21.5422 29.9156C22.3257 28.97 23.0597 28.4341 23.7445 28.3077C24.4292 28.1813 25.0859 28.3848 25.7147 28.9183C26.0553 29.2072 26.2959 29.5091 26.4365 29.8241C26.5771 30.139 26.6514 30.4352 26.6593 30.7129C26.6673 30.9905 26.6352 31.2266 26.5631 31.4213L26.5893 31.4435C27.1233 30.9785 27.6989 30.7595 28.316 30.7865C28.9244 30.8061 29.4731 31.0233 29.9622 31.4382C30.4163 31.8234 30.7317 32.2415 30.9084 32.6924C31.0924 33.1344 31.1034 33.6328 30.9412 34.1875C30.7791 34.7421 30.4088 35.3685 29.8304 36.0667L25.5032 41.2893ZM22.3647 36.0308L25.2092 32.5977C25.6485 32.0675 25.8828 31.5514 25.912 31.0495C25.9325 30.5401 25.6894 30.0706 25.1829 29.6409C24.7113 29.2408 24.2201 29.0799 23.7091 29.158C23.1982 29.2362 22.6828 29.589 22.1629 30.2165L19.4172 33.5303C19.1976 33.7954 19.0833 33.9693 19.0743 34.052C19.0639 34.1184 19.1591 34.2368 19.3599 34.4072L21.5214 36.2409C21.7135 36.4039 21.8454 36.4781 21.9169 36.4636C21.9958 36.4402 22.145 36.296 22.3647 36.0308ZM26.2181 39.3225L29.4141 35.4652C30.4904 34.1662 30.474 33.0462 29.3649 32.1052C28.8409 31.6607 28.262 31.5157 27.6283 31.6703C26.9932 31.8087 26.3608 32.2579 25.7311 33.0178L22.8756 36.4643C22.6559 36.7294 22.5416 36.9033 22.5326 36.9859C22.5309 37.0597 22.6305 37.1818 22.8314 37.3523L25.3858 39.5194C25.5779 39.6824 25.7098 39.7566 25.7813 39.742C25.8602 39.7186 26.0058 39.5788 26.2181 39.3225Z" fill="white"/>
<path d="M37.5554 28.7674C36.6767 29.5018 35.8708 29.9361 35.1377 30.0701C34.4135 30.1969 33.7507 30.1002 33.1494 29.7801C32.5569 29.4527 32.0103 28.9822 31.5096 28.3687C31.0015 27.7463 30.649 27.1062 30.4519 26.4483C30.2636 25.783 30.2994 25.1025 30.5592 24.4067C30.8117 23.7021 31.3729 22.9862 32.2428 22.2592C33.1127 21.5321 33.9134 21.1097 34.6449 20.9918C35.378 20.8577 36.0452 20.9507 36.6465 21.2708C37.2477 21.5909 37.8024 22.0622 38.3104 22.6845C38.8112 23.298 39.1513 23.9411 39.3308 24.6137C39.5191 25.2789 39.4833 25.9595 39.2235 26.6552C38.9637 27.351 38.4077 28.0551 37.5554 28.7674ZM37.1199 28.234C38.0249 27.4775 38.5346 26.7076 38.6488 25.924C38.7646 25.1243 38.4234 24.2354 37.625 23.2574C36.8267 22.2793 36.0285 21.7723 35.2305 21.7363C34.4252 21.6914 33.5745 22.0435 32.6783 22.7926C31.782 23.5417 31.2833 24.325 31.182 25.1426C31.0807 25.9601 31.422 26.849 32.2058 27.8092C32.9896 28.7695 33.7761 29.2713 34.5654 29.3146C35.3634 29.3506 36.2149 28.9904 37.1199 28.234Z" fill="white"/>
<path d="M47.0219 22.1087C46.0336 22.6829 45.1669 22.9736 44.422 22.9808C43.687 22.9823 43.0498 22.7741 42.5104 22.3561C41.9809 21.9323 41.5204 21.3754 41.1288 20.6854C40.7317 19.9853 40.4907 19.2942 40.4059 18.6121C40.3311 17.9242 40.4796 17.2595 40.8515 16.618C41.2177 15.9664 41.8901 15.3565 42.8685 14.788C43.847 14.2196 44.7066 13.9397 45.4473 13.9482C46.1922 13.941 46.8344 14.1463 47.3738 14.5643C47.9132 14.9823 48.3814 15.5414 48.7786 16.2414C49.1701 16.9315 49.3984 17.6233 49.4634 18.3169C49.5382 19.0048 49.3897 19.6695 49.0178 20.311C48.6459 20.9526 47.9806 21.5518 47.0219 22.1087ZM46.6815 21.5087C47.6995 20.9173 48.33 20.2452 48.573 19.4923C48.8203 18.7237 48.6319 17.7894 48.0077 16.6893C47.3836 15.5892 46.6812 14.9534 45.9006 14.7819C45.1143 14.6004 44.2171 14.8025 43.209 15.3881C42.2009 15.9737 41.5788 16.6609 41.3429 17.4495C41.107 18.2381 41.2955 19.1724 41.9083 20.2525C42.5211 21.3326 43.2128 21.9613 43.9836 22.1385C44.7642 22.31 45.6635 22.1001 46.6815 21.5087Z" fill="white"/>
<path d="M53.4097 18.514C53.4843 18.4856 53.5256 18.3837 53.5335 18.2082C53.552 18.0287 53.4971 17.7662 53.3687 17.4208L49.9397 8.19173C49.8114 7.84631 49.6838 7.61765 49.557 7.50573C49.4369 7.37896 49.3374 7.32438 49.2588 7.34199L50.4108 6.90371L52.8172 13.3802C52.9054 13.6177 52.9862 13.7533 53.0596 13.787C53.1396 13.8058 53.3397 13.7543 53.6597 13.6326C54.4277 13.3404 55.0302 12.8648 55.4672 12.2057C55.9148 11.5427 56.1229 10.792 56.0915 9.95391C56.0806 9.56385 56.0383 9.30272 55.9648 9.17051C55.898 9.02345 55.836 8.95467 55.7786 8.96416L57.3947 8.34934C57.3627 8.36152 57.3161 8.46548 57.2549 8.66124C57.2044 8.85295 57.1546 9.1614 57.1056 9.58659C57.001 10.4518 56.7982 11.2004 56.4973 11.8323C56.207 12.4602 55.7753 12.9694 55.202 13.36C55.8622 13.269 56.4451 13.2813 56.9508 13.3969C57.463 13.4977 57.9514 13.6815 58.4158 13.9484C58.8908 14.2112 59.3793 14.5428 59.8812 14.9432C60.2228 15.2075 60.5018 15.3847 60.7179 15.475C60.9447 15.5612 61.0955 15.59 61.1702 15.5616L59.4101 16.2312C59.47 16.1961 59.4573 16.0962 59.3718 15.9316C59.297 15.763 59.084 15.5175 58.7329 15.1953C58.4112 14.8864 58.0115 14.6135 57.5338 14.3763C57.0521 14.1284 56.5057 13.9851 55.8948 13.9465C55.2905 13.893 54.6257 14.0043 53.9003 14.2802C53.5696 14.406 53.3957 14.5277 53.3784 14.6451C53.3612 14.7625 53.3987 14.9454 53.4909 15.1937L54.2008 17.1042C54.3291 17.4496 54.4534 17.6857 54.5735 17.8125C54.7043 17.9352 54.8071 17.9824 54.8818 17.954L53.4097 18.514Z" fill="white"/>
<path d="M72.9837 13.3765C71.8519 13.5115 70.9421 13.4342 70.2543 13.1447C69.5778 12.8538 69.0727 12.4089 68.7391 11.81C68.4167 11.2098 68.2095 10.5146 68.1175 9.72438C68.0241 8.9227 68.0709 8.19139 68.2579 7.53045C68.4561 6.86816 68.8508 6.31599 69.442 5.87392C70.0318 5.4204 70.8869 5.12683 72.0074 4.99322C73.1279 4.8596 74.027 4.94397 74.7048 5.24632C75.3927 5.53587 75.9034 5.98008 76.2371 6.57893C76.5707 7.17778 76.7843 7.87805 76.8776 8.67973C76.9697 9.46996 76.9109 10.1969 76.7013 10.8605C76.503 11.5228 76.1083 12.075 75.5172 12.5171C74.9261 12.9591 74.0816 13.2456 72.9837 13.3765ZM72.9037 12.6894C74.0695 12.5504 74.9103 12.183 75.4261 11.5874C75.952 10.9789 76.1416 10.0448 75.9948 8.785C75.8481 7.52522 75.4491 6.66128 74.7979 6.19319C74.1453 5.71364 73.2418 5.54271 72.0874 5.68037C70.933 5.81804 70.0942 6.20256 69.571 6.83392C69.0478 7.46528 68.8582 8.3994 69.0023 9.63628C69.1463 10.8732 69.5383 11.7263 70.1782 12.1958C70.8295 12.6639 71.7379 12.8284 72.9037 12.6894Z" fill="white"/>
<path d="M80.6479 12.6831C80.7277 12.6851 80.8037 12.6063 80.8761 12.4466C80.9598 12.2873 81.0062 12.0231 81.0154 11.6542L81.1726 5.2906L79.6346 5.25168L79.6517 4.55999L81.3435 4.60279L81.3615 4.56864C81.3512 4.52224 81.2932 4.33044 81.1876 3.99324C81.0933 3.65632 81.0517 3.26306 81.0628 2.81346C81.0853 1.90273 81.3579 1.2521 81.8806 0.861584C82.4032 0.471067 83.1202 0.287339 84.0317 0.310401C84.6127 0.325102 85.1187 0.378279 85.5496 0.469931C85.9808 0.550055 86.2866 0.632772 86.4669 0.718082L86.4622 0.908299L86.7873 1.59135C86.562 1.48183 86.1887 1.3628 85.6675 1.23426C85.1577 1.106 84.5667 1.03337 83.8945 1.01636C83.2109 0.999067 82.7168 1.1596 82.412 1.49795C82.1189 1.82506 81.9639 2.33447 81.9468 3.02616L81.9203 4.09829C81.914 4.35191 81.9331 4.50236 81.9775 4.54962C82.0219 4.59689 82.1752 4.62384 82.4372 4.63047L86.0259 4.72127C85.9459 4.73078 85.8647 4.78641 85.7824 4.88814C85.7115 4.99017 85.673 5.16223 85.6671 5.40432L82.0613 5.31308L81.904 11.6767C81.8949 12.0456 81.9225 12.3116 81.9869 12.4747C82.0626 12.6381 82.1404 12.7209 82.2201 12.7229L80.6479 12.6831Z" fill="white"/>
<path d="M93.9812 13.7935C94.0583 13.8141 94.1558 13.7566 94.2736 13.6211C94.3914 13.4855 94.4968 13.2393 94.5897 12.8825L96.6809 4.85372C96.7738 4.49688 96.8006 4.23569 96.7612 4.07016C96.7247 3.89347 96.6694 3.78926 96.5951 3.75754L105.554 6.14686L105.511 6.31413L105.641 7.17172C105.38 7.04249 104.91 6.85743 104.23 6.61652C103.553 6.36447 102.724 6.10766 101.744 5.84609L98.3053 4.92916C97.9747 4.84099 97.7691 4.81597 97.6884 4.85409C97.6217 4.884 97.5579 5.01604 97.4969 5.25022L96.7824 7.99339C96.7185 8.23871 96.7083 8.39102 96.7518 8.45032C96.8063 8.51256 96.9933 8.58629 97.3129 8.67152L100.685 9.57082C101.324 9.74128 101.841 9.86121 102.235 9.93062C102.644 9.99181 102.913 10.0218 103.043 10.0207C102.957 10.0336 102.857 10.1022 102.742 10.2266C102.641 10.3428 102.558 10.5236 102.494 10.7689L97.1386 9.34059C96.8191 9.25536 96.6204 9.22623 96.5427 9.2532C96.4788 9.27196 96.4135 9.40958 96.3467 9.66605L95.4972 12.9277C95.4304 13.1842 95.4188 13.3421 95.4622 13.4014C95.5057 13.4607 95.6928 13.5344 96.0234 13.6226L101.478 15.0774C102.117 15.2478 102.639 15.351 103.042 15.387C103.459 15.4147 103.738 15.4057 103.88 15.36L103.336 16.0914L103.288 16.2754L93.9812 13.7935Z" fill="white"/>
<path d="M106.041 17.4844C106.115 17.5148 106.214 17.4683 106.337 17.3449C106.471 17.2258 106.607 16.9953 106.745 16.6535L110.418 7.52122C110.555 7.17942 110.615 6.92388 110.597 6.7546C110.594 6.57898 110.557 6.47062 110.488 6.4295C110.805 6.55992 111.071 6.63222 111.287 6.64638C111.517 6.65421 111.674 6.63161 111.757 6.57858L107.568 16.9926C107.43 17.3344 107.363 17.5931 107.366 17.7687C107.38 17.9487 107.424 18.0539 107.498 18.0843L106.041 17.4844Z" fill="white"/>
<path d="M113.278 21.0545C112.191 20.4455 111.498 19.8198 111.198 19.1773C110.914 18.5303 110.973 17.8385 111.376 17.1021C111.774 16.3758 112.364 15.9751 113.148 15.9001C113.931 15.8251 114.931 16.1285 116.148 16.8101C116.836 17.1956 117.361 17.569 117.723 17.9303C118.091 18.2815 118.351 18.5919 118.503 18.8617C118.655 19.1314 118.749 19.329 118.785 19.4544C119.199 18.6978 119.453 18.0427 119.547 17.4893C119.647 16.9258 119.541 16.418 119.228 15.9659C118.921 15.5037 118.364 15.0463 117.556 14.5938C117.097 14.3368 116.629 14.1336 116.151 13.9841C115.688 13.8302 115.261 13.7294 114.87 13.6817C114.489 13.6397 114.206 13.6457 114.02 13.6997L114.103 13.5484L114.326 12.7836C114.392 12.7813 114.58 12.8073 114.889 12.8618C115.203 12.9062 115.625 13.0171 116.153 13.1944C116.691 13.3774 117.309 13.6644 118.007 14.0555C119.303 14.7818 120.076 15.571 120.326 16.4231C120.592 17.2706 120.418 18.2543 119.806 19.374L118.149 22.4005C117.995 22.6829 117.911 22.9065 117.899 23.0712C117.903 23.2313 117.92 23.3663 117.951 23.476L116.905 22.8894L117.327 22.1176L117.514 21.8469L117.493 21.815C117.394 21.8521 117.236 21.9021 117.02 21.9652C116.808 22.0181 116.529 22.0397 116.183 22.0301C115.846 22.0261 115.439 21.9494 114.96 21.7999C114.487 21.6661 113.926 21.4177 113.278 21.0545ZM113.811 20.5431C114.43 20.8894 115.029 21.1267 115.611 21.2547C116.202 21.3883 116.719 21.4078 117.161 21.3131C117.62 21.2139 117.94 20.9979 118.122 20.6649C118.354 20.2412 118.308 19.7541 117.984 19.2034C117.665 18.6427 116.973 18.0634 115.906 17.4656C114.002 16.3985 112.746 16.4198 112.139 17.5295C111.835 18.0843 111.814 18.5996 112.074 19.0753C112.335 19.551 112.914 20.0402 113.811 20.5431Z" fill="white"/>
<path d="M120.356 25.184C120.419 25.2332 120.526 25.2149 120.678 25.1292C120.838 25.0504 121.03 24.8648 121.252 24.5723L124.775 19.9384C124.998 19.6459 125.122 19.4157 125.15 19.2476C125.193 19.0775 125.186 18.9632 125.13 18.9048C125.41 19.1228 125.652 19.2677 125.856 19.3394C126.067 19.402 126.22 19.4189 126.314 19.3901L125.574 20.3635L125.369 20.5755L125.376 20.624C125.607 20.5277 125.877 20.4468 126.186 20.3815C126.494 20.3161 126.841 20.3319 127.228 20.429C127.621 20.5169 128.039 20.7331 128.482 21.0777C128.969 21.4574 129.345 21.8519 129.609 22.2611C129.889 22.6682 130.053 22.992 130.1 23.2325L129.402 23.8674L129.297 24.0045C129.326 23.7211 129.245 23.3453 129.055 22.877C128.864 22.4087 128.498 21.9636 127.956 21.5417C127.297 21.0284 126.616 20.855 125.914 21.0216C125.222 21.1952 124.597 21.6476 124.041 22.3788L121.957 25.1208C121.734 25.4133 121.602 25.6446 121.558 25.8148C121.524 25.9919 121.539 26.1051 121.602 26.1544L120.356 25.184Z" fill="white"/>
<path d="M129.611 33.4005C128.751 32.4938 128.271 31.6887 128.173 30.9853C128.09 30.2821 128.349 29.6391 128.949 29.0561C129.541 28.481 130.222 28.2749 130.993 28.4376C131.763 28.6003 132.63 29.189 133.593 30.2039C134.137 30.7779 134.53 31.2917 134.771 31.7452C135.02 32.1908 135.177 32.5651 135.244 32.8683C135.31 33.1714 135.342 33.3882 135.34 33.5186C135.956 32.9196 136.39 32.3699 136.642 31.8694C136.902 31.361 136.949 30.844 136.782 30.3186C136.624 29.7852 136.225 29.1816 135.586 28.5078C135.223 28.1251 134.834 27.7909 134.421 27.5051C134.024 27.2196 133.645 26.9956 133.286 26.8333C132.934 26.6792 132.662 26.6002 132.469 26.5962L132.592 26.4764L133.028 25.8125C133.092 25.8302 133.264 25.9112 133.543 26.0556C133.831 26.192 134.201 26.4239 134.654 26.7514C135.114 27.0871 135.621 27.5461 136.174 28.1284C137.2 29.2098 137.708 30.195 137.698 31.0838C137.704 31.9729 137.251 32.8607 136.338 33.7472L133.872 36.1431C133.642 36.3668 133.497 36.5554 133.438 36.7092C133.394 36.8632 133.371 36.9973 133.369 37.1115L132.54 36.238L133.169 35.6271L133.427 35.4244L133.416 35.3875C133.311 35.3935 133.146 35.3941 132.92 35.3895C132.703 35.3768 132.43 35.3141 132.102 35.2013C131.782 35.0969 131.415 34.9017 131.001 34.6159C130.588 34.3464 130.124 33.9412 129.611 33.4005ZM130.271 33.0716C130.76 33.5873 131.264 33.9933 131.782 34.2894C132.308 34.5939 132.796 34.7671 133.246 34.809C133.713 34.8512 134.082 34.7406 134.353 34.477C134.698 34.1416 134.797 33.6624 134.648 33.0395C134.508 32.4086 134.015 31.6481 133.171 30.758C131.663 29.1691 130.457 28.8139 129.553 29.6924C129.101 30.1317 128.93 30.6175 129.04 31.1499C129.15 31.6823 129.56 32.3229 130.271 33.0716Z" fill="white"/>
<path d="M143.894 54.1118C143.92 54.1879 144.022 54.2371 144.199 54.2593C144.376 54.2816 144.636 54.2312 144.98 54.1081L152.716 51.339C153.06 51.2159 153.288 51.0913 153.401 50.9652C153.525 50.8353 153.579 50.7303 153.563 50.6504L155.587 56.4395C155.994 57.6028 156.077 58.5149 155.836 59.1759C155.596 59.8368 155.089 60.3058 154.316 60.5827C153.897 60.7327 153.517 60.7889 153.178 60.7514C152.838 60.714 152.548 60.6281 152.308 60.494C152.068 60.3598 151.883 60.2119 151.754 60.0501L151.722 60.0617C151.846 60.7633 151.74 61.3762 151.404 61.9003C151.078 62.4206 150.614 62.7885 150.012 63.0038C149.454 63.2038 148.938 63.2663 148.464 63.1911C147.994 63.1269 147.565 62.8832 147.175 62.46C146.785 62.0368 146.44 61.3958 146.14 60.5369L143.894 54.1118ZM149.964 54.0488L151.441 58.2724C151.669 58.9247 151.989 59.3911 152.401 59.6716C152.824 59.9483 153.348 59.9751 153.971 59.752C154.551 59.5443 154.938 59.198 155.131 58.7129C155.324 58.2279 155.285 57.5995 155.015 56.8276L153.59 52.7507C153.476 52.4246 153.386 52.2366 153.32 52.1867C153.269 52.1439 153.12 52.1667 152.873 52.2552L150.214 53.2071C149.977 53.2917 149.847 53.3689 149.823 53.4386C149.803 53.5192 149.85 53.7226 149.964 54.0488ZM145.204 55.7343L146.863 60.4798C147.422 62.0779 148.384 62.6328 149.748 62.1443C150.393 61.9136 150.81 61.4827 151.001 60.8519C151.206 60.2281 151.145 59.4487 150.818 58.5137L149.336 54.2738C149.222 53.9476 149.132 53.7596 149.066 53.7098C149.004 53.6708 148.849 53.6955 148.602 53.784L145.46 54.909C145.223 54.9936 145.093 55.0707 145.069 55.1405C145.049 55.2211 145.094 55.4191 145.204 55.7343Z" fill="white"/>
<path d="M148.427 70.9785C148.248 69.8395 148.288 68.9165 148.547 68.2095C148.807 67.5139 149.226 66.9854 149.804 66.6241C150.384 66.2741 151.062 66.0368 151.839 65.9121C152.627 65.7857 153.351 65.8037 154.011 65.9663C154.673 66.1402 155.234 66.5172 155.694 67.0972C156.165 67.6754 156.489 68.5283 156.666 69.6558C156.843 70.7834 156.796 71.6959 156.524 72.3933C156.266 73.1003 155.848 73.6345 155.27 73.9958C154.692 74.3572 154.009 74.6011 153.221 74.7276C152.444 74.8522 151.724 74.8219 151.06 74.6365C150.398 74.4626 149.837 74.0856 149.377 73.5056C148.917 72.9256 148.6 72.0832 148.427 70.9785ZM149.102 70.87C149.286 72.0432 149.683 72.8786 150.291 73.3763C150.913 73.8837 151.843 74.0379 153.081 73.8392C154.32 73.6404 155.157 73.2025 155.593 72.5253C156.04 71.8463 156.173 70.926 155.991 69.7642C155.809 68.6025 155.395 67.7698 154.751 67.2661C154.107 66.7624 153.177 66.6081 151.961 66.8032C150.745 66.9984 149.919 67.4288 149.481 68.0946C149.045 68.7718 148.918 69.6969 149.102 70.87Z" fill="white"/>
<path d="M149.284 82.6123C149.297 81.4592 149.49 80.5562 149.863 79.9033C150.235 79.262 150.736 78.8124 151.366 78.5548C151.996 78.3086 152.704 78.1903 153.49 78.1998C154.288 78.2094 154.998 78.3505 155.622 78.6233C156.246 78.9076 156.736 79.3748 157.093 80.0249C157.461 80.6752 157.639 81.5711 157.625 82.7127C157.612 83.8543 157.414 84.7457 157.03 85.3869C156.657 86.0398 156.156 86.495 155.526 86.7527C154.897 87.0104 154.183 87.1344 153.385 87.1248C152.599 87.1153 151.894 86.9627 151.271 86.6669C150.647 86.3826 150.157 85.9154 149.8 85.2652C149.443 84.6151 149.271 83.7308 149.284 82.6123ZM149.968 82.6205C149.954 83.8082 150.205 84.6993 150.723 85.2937C151.251 85.8997 152.142 86.2103 153.396 86.2254C154.649 86.2405 155.547 85.9514 156.09 85.3583C156.644 84.7652 156.928 83.8806 156.942 82.7045C156.956 81.5283 156.687 80.637 156.135 80.0307C155.584 79.4244 154.693 79.1138 153.462 79.099C152.232 79.0842 151.345 79.3676 150.803 79.9492C150.26 80.5424 149.982 81.4328 149.968 82.6205Z" fill="white"/>
<path d="M149.098 90.0059C149.084 90.0854 149.15 90.1732 149.295 90.2692C149.438 90.3766 149.69 90.4621 150.049 90.5258L159.647 92.2272C160.006 92.2909 160.265 92.296 160.425 92.2423C160.594 92.202 160.691 92.1431 160.716 92.0656L160.503 93.2923L153.768 92.0983C153.521 92.0546 153.365 92.0561 153.299 92.1029C153.242 92.1631 153.184 92.3636 153.125 92.7044C152.984 93.5222 153.082 94.289 153.421 95.0047C153.758 95.7317 154.291 96.2945 155.021 96.6931C155.358 96.8817 155.602 96.9776 155.752 96.9808C155.911 96.9973 156.001 96.9781 156.022 96.9233L155.724 98.6442C155.73 98.6101 155.665 98.5167 155.53 98.3639C155.392 98.2224 155.155 98.0223 154.818 97.7635C154.135 97.2326 153.6 96.6755 153.216 96.0921C152.829 95.5201 152.615 94.8851 152.574 94.1871C152.315 94.8087 152.009 95.3104 151.653 95.6923C151.307 96.0875 150.903 96.4197 150.44 96.6888C149.975 96.9693 149.444 97.2265 148.848 97.4604C148.45 97.6239 148.157 97.7769 147.97 97.9194C147.782 98.0733 147.681 98.19 147.667 98.2695L147.991 96.3953C147.991 96.4654 148.082 96.5051 148.266 96.5142C148.447 96.5347 148.764 96.4738 149.217 96.3316C149.643 96.2082 150.079 95.9985 150.524 95.7027C150.979 95.4089 151.379 95.0056 151.722 94.4928C152.075 93.9933 152.318 93.3574 152.452 92.585C152.513 92.2328 152.498 92.0194 152.406 91.9447C152.315 91.87 152.141 91.8098 151.882 91.764L149.895 91.4118C149.536 91.3481 149.272 91.3364 149.103 91.3767C148.932 91.4284 148.84 91.4939 148.826 91.5735L149.098 90.0059Z" fill="white"/>
<path d="M143.523 109.675C143.984 108.62 144.512 107.867 145.108 107.415C145.699 106.973 146.334 106.759 147.014 106.772C147.688 106.796 148.385 106.969 149.105 107.29C149.835 107.616 150.433 108.029 150.901 108.528C151.364 109.037 151.633 109.662 151.709 110.401C151.795 111.146 151.611 112.04 151.155 113.085C150.699 114.129 150.171 114.87 149.569 115.307C148.973 115.759 148.335 115.979 147.656 115.965C146.977 115.952 146.272 115.782 145.542 115.456C144.823 115.134 144.234 114.714 143.776 114.194C143.313 113.685 143.043 113.06 142.968 112.32C142.892 111.58 143.077 110.699 143.523 109.675ZM144.149 109.955C143.675 111.041 143.56 111.961 143.805 112.713C144.056 113.481 144.755 114.121 145.901 114.633C147.048 115.145 147.986 115.236 148.716 114.907C149.455 114.582 150.06 113.881 150.529 112.805C150.999 111.729 151.098 110.803 150.826 110.026C150.555 109.249 149.856 108.609 148.73 108.106C147.604 107.603 146.679 107.511 145.954 107.83C145.225 108.16 144.623 108.868 144.149 109.955Z" fill="white"/>
<path d="M140.219 116.707C140.177 116.776 140.205 116.882 140.304 117.026C140.397 117.18 140.599 117.355 140.908 117.55L146.244 120.921L147.059 119.6L147.639 119.967L146.743 121.419L146.763 121.452C146.808 121.467 147 121.514 147.341 121.593C147.676 121.682 148.032 121.846 148.409 122.084C149.172 122.567 149.588 123.135 149.654 123.789C149.721 124.443 149.513 125.161 149.03 125.943C148.723 126.442 148.42 126.856 148.123 127.185C147.836 127.52 147.61 127.745 147.446 127.859L147.286 127.758L146.54 127.694C146.748 127.553 147.039 127.289 147.413 126.9C147.781 126.52 148.143 126.042 148.499 125.465C148.861 124.878 148.976 124.366 148.843 123.928C148.713 123.507 148.358 123.113 147.778 122.746L146.879 122.179C146.667 122.044 146.529 121.984 146.466 121.999C146.403 122.014 146.302 122.134 146.164 122.359L144.263 125.44C144.295 125.365 144.289 125.266 144.244 125.143C144.194 125.029 144.067 124.908 143.864 124.78L145.774 121.684L140.437 118.313C140.128 118.118 139.887 118.007 139.716 117.98C139.538 117.963 139.428 117.989 139.386 118.057L140.219 116.707Z" fill="white"/>
<path d="M132.498 127.763C132.442 127.82 132.441 127.934 132.497 128.105C132.552 128.277 132.708 128.494 132.965 128.756L138.736 134.659C138.992 134.921 139.201 135.077 139.362 135.127C139.531 135.185 139.647 135.189 139.712 135.141L133.126 141.735L133.005 141.612L132.209 141.289C132.452 141.128 132.849 140.812 133.399 140.342C133.957 139.88 134.597 139.288 135.318 138.566L137.846 136.036C138.089 135.793 138.215 135.626 138.223 135.536C138.232 135.463 138.152 135.34 137.983 135.168L136.012 133.152C135.835 132.971 135.711 132.885 135.638 132.893C135.558 132.909 135.4 133.034 135.165 133.269L132.686 135.751C132.216 136.222 131.851 136.611 131.592 136.919C131.332 137.244 131.17 137.464 131.105 137.577C131.137 137.496 131.13 137.374 131.083 137.21C131.035 137.063 130.923 136.9 130.747 136.719L134.684 132.777C134.919 132.542 135.045 132.384 135.061 132.302C135.078 132.237 134.994 132.11 134.809 131.922L132.465 129.524C132.281 129.336 132.152 129.245 132.08 129.253C132.007 129.261 131.849 129.386 131.606 129.63L127.596 133.644C127.126 134.115 126.773 134.516 126.538 134.849C126.302 135.199 126.168 135.447 126.135 135.593L125.789 134.748L125.657 134.612L132.498 127.763Z" fill="white"/>
<path d="M123.228 136.398C123.165 136.447 123.154 136.556 123.197 136.727C123.23 136.904 123.357 137.139 123.578 137.433L129.485 145.275C129.706 145.568 129.893 145.75 130.046 145.821C130.197 145.907 130.308 145.93 130.378 145.891C130.106 146.1 129.909 146.296 129.788 146.476C129.664 146.673 129.603 146.822 129.606 146.921L122.871 137.978C122.65 137.685 122.464 137.495 122.313 137.408C122.153 137.329 122.041 137.313 121.978 137.362L123.228 136.398Z" fill="white"/>
<path d="M116.513 140.89C117.583 140.252 118.468 139.966 119.167 140.031C119.862 140.113 120.421 140.516 120.843 141.241C121.259 141.957 121.3 142.675 120.966 143.396C120.631 144.117 119.865 144.835 118.667 145.548C117.989 145.952 117.404 146.22 116.913 146.352C116.427 146.494 116.03 146.563 115.724 146.558C115.417 146.554 115.201 146.535 115.076 146.502C115.51 147.248 115.938 147.802 116.361 148.166C116.79 148.539 117.276 148.705 117.82 148.662C118.369 148.629 119.042 148.376 119.837 147.902C120.289 147.633 120.7 147.328 121.071 146.987C121.437 146.662 121.739 146.341 121.979 146.024C122.208 145.714 122.347 145.464 122.395 145.274L122.482 145.424L123.02 146.007C122.988 146.066 122.87 146.216 122.667 146.457C122.469 146.709 122.161 147.02 121.741 147.39C121.312 147.766 120.754 148.159 120.066 148.568C118.79 149.329 117.725 149.601 116.873 149.387C116.016 149.187 115.267 148.536 114.626 147.433L112.891 144.452C112.73 144.173 112.582 143.987 112.448 143.893C112.309 143.815 112.186 143.761 112.077 143.733L113.108 143.118L113.55 143.879L113.685 144.179L113.723 144.177C113.742 144.072 113.779 143.909 113.836 143.688C113.898 143.477 114.022 143.223 114.206 142.926C114.38 142.635 114.653 142.319 115.023 141.978C115.378 141.633 115.874 141.27 116.513 140.89ZM116.677 141.615C116.068 141.978 115.561 142.38 115.157 142.821C114.742 143.269 114.463 143.709 114.319 144.143C114.17 144.593 114.192 144.982 114.382 145.31C114.625 145.727 115.063 145.935 115.697 145.932C116.336 145.94 117.181 145.63 118.231 145.004C120.107 143.887 120.727 142.782 120.092 141.689C119.774 141.142 119.346 140.862 118.809 140.847C118.271 140.833 117.561 141.089 116.677 141.615Z" fill="white"/>
<path d="M109.401 144.96C109.327 144.99 109.288 145.093 109.284 145.269C109.269 145.449 109.33 145.71 109.466 146.052L111.62 151.477C111.756 151.82 111.888 152.046 112.018 152.155C112.141 152.279 112.241 152.331 112.319 152.312C111.992 152.445 111.745 152.582 111.58 152.724C111.42 152.876 111.328 153 111.305 153.097L110.852 151.957L110.776 151.671L110.731 151.652C110.696 151.903 110.627 152.179 110.526 152.481C110.425 152.783 110.235 153.078 109.956 153.365C109.681 153.664 109.285 153.918 108.767 154.129C108.196 154.361 107.669 154.488 107.186 154.51C106.698 154.547 106.339 154.525 106.11 154.444L105.925 153.513L105.861 153.352C106.088 153.521 106.449 153.642 106.944 153.714C107.439 153.786 108.004 153.693 108.639 153.435C109.411 153.121 109.904 152.616 110.119 151.92C110.323 151.228 110.255 150.454 109.916 149.598L108.641 146.387C108.505 146.045 108.376 145.812 108.253 145.688C108.119 145.568 108.016 145.523 107.942 145.553L109.401 144.96Z" fill="white"/>
<path d="M97.7042 148.851C98.9132 148.562 99.8421 148.553 100.491 148.825C101.131 149.11 101.547 149.662 101.738 150.482C101.927 151.29 101.756 151.988 101.226 152.577C100.696 153.166 99.7548 153.622 98.4017 153.945C97.6364 154.128 96.9996 154.209 96.4912 154.189C95.9855 154.179 95.5867 154.127 95.295 154.03C95.0032 153.934 94.8025 153.852 94.6928 153.783C94.8893 154.625 95.1365 155.283 95.4345 155.757C95.7351 156.242 96.1514 156.545 96.6833 156.667C97.2179 156.8 97.9343 156.759 98.8327 156.544C99.3429 156.422 99.8247 156.254 100.278 156.039C100.723 155.837 101.106 155.621 101.427 155.391C101.736 155.163 101.942 154.965 102.044 154.799L102.083 154.967L102.426 155.685C102.379 155.732 102.222 155.84 101.958 156.01C101.695 156.191 101.31 156.396 100.801 156.624C100.281 156.855 99.6332 157.064 98.8568 157.249C97.415 157.594 96.3183 157.536 95.5668 157.076C94.8069 156.629 94.2815 155.783 93.9906 154.538L93.2046 151.171C93.1313 150.857 93.0443 150.634 92.9437 150.504C92.8346 150.388 92.7321 150.3 92.6361 150.24L93.8006 149.962L94.0011 150.82L94.0425 151.148L94.0797 151.157C94.1279 151.063 94.2113 150.918 94.3299 150.724C94.4511 150.541 94.6431 150.335 94.9059 150.106C95.1576 149.88 95.5101 149.66 95.9634 149.445C96.403 149.221 96.9833 149.023 97.7042 148.851ZM97.6491 149.593C96.9614 149.757 96.36 149.99 95.8447 150.291C95.3184 150.594 94.9229 150.932 94.6583 151.303C94.3852 151.688 94.2919 152.066 94.3784 152.437C94.4884 152.908 94.8463 153.237 95.452 153.424C96.0604 153.622 96.9579 153.58 98.1447 153.296C100.263 152.789 101.178 151.919 100.89 150.685C100.746 150.067 100.419 149.671 99.9101 149.497C99.401 149.322 98.6473 149.354 97.6491 149.593Z" fill="white"/>
</svg>
